<mxfile host="app.diagrams.net" modified="2022-09-29T13:09:59.113Z" agent="5.0 (Windows NT 10.0; Win64; x64) AppleWebKit/537.36 (KHTML, like Gecko) Chrome/105.0.0.0 Safari/537.36" etag="jXMExlAxwY1Iu5q5IBse" version="20.3.7" type="github">
  <diagram id="bophtDkSAnxqIWFmkw5c" name="Sayfa -1">
    <mxGraphModel dx="868" dy="482" grid="1" gridSize="10" guides="1" tooltips="1" connect="1" arrows="1" fold="1" page="1" pageScale="1" pageWidth="827" pageHeight="1169" math="0" shadow="0">
      <root>
        <mxCell id="0" />
        <mxCell id="1" parent="0" />
        <mxCell id="xen0vVQlNRW4A-57HRjQ-5" value="Üniversite" style="swimlane;fontStyle=0;childLayout=stackLayout;horizontal=1;startSize=26;fillColor=none;horizontalStack=0;resizeParent=1;resizeParentMax=0;resizeLast=0;collapsible=1;marginBottom=0;" parent="1" vertex="1">
          <mxGeometry x="344" y="40" width="140" height="52" as="geometry" />
        </mxCell>
        <mxCell id="xen0vVQlNRW4A-57HRjQ-6" value="+ field: type" style="text;strokeColor=none;fillColor=none;align=left;verticalAlign=top;spacingLeft=4;spacingRight=4;overflow=hidden;rotatable=0;points=[[0,0.5],[1,0.5]];portConstraint=eastwest;" parent="xen0vVQlNRW4A-57HRjQ-5" vertex="1">
          <mxGeometry y="26" width="140" height="26" as="geometry" />
        </mxCell>
        <mxCell id="xen0vVQlNRW4A-57HRjQ-9" value="Calışma Odaları" style="swimlane;fontStyle=0;childLayout=stackLayout;horizontal=1;startSize=30;fillColor=none;horizontalStack=0;resizeParent=1;resizeParentMax=0;resizeLast=0;collapsible=1;marginBottom=0;" parent="1" vertex="1">
          <mxGeometry x="660" y="126" width="140" height="56" as="geometry" />
        </mxCell>
        <mxCell id="xen0vVQlNRW4A-57HRjQ-10" value="+ field: type" style="text;strokeColor=none;fillColor=none;align=left;verticalAlign=top;spacingLeft=4;spacingRight=4;overflow=hidden;rotatable=0;points=[[0,0.5],[1,0.5]];portConstraint=eastwest;" parent="xen0vVQlNRW4A-57HRjQ-9" vertex="1">
          <mxGeometry y="30" width="140" height="26" as="geometry" />
        </mxCell>
        <mxCell id="xen0vVQlNRW4A-57HRjQ-11" value="Departmanlar" style="swimlane;fontStyle=0;childLayout=stackLayout;horizontal=1;startSize=26;fillColor=none;horizontalStack=0;resizeParent=1;resizeParentMax=0;resizeLast=0;collapsible=1;marginBottom=0;" parent="1" vertex="1">
          <mxGeometry x="300" y="140" width="140" height="52" as="geometry" />
        </mxCell>
        <mxCell id="xen0vVQlNRW4A-57HRjQ-12" value="+ field: type" style="text;strokeColor=none;fillColor=none;align=left;verticalAlign=top;spacingLeft=4;spacingRight=4;overflow=hidden;rotatable=0;points=[[0,0.5],[1,0.5]];portConstraint=eastwest;" parent="xen0vVQlNRW4A-57HRjQ-11" vertex="1">
          <mxGeometry y="26" width="140" height="26" as="geometry" />
        </mxCell>
        <mxCell id="xen0vVQlNRW4A-57HRjQ-13" value="Sınıflar" style="swimlane;fontStyle=0;childLayout=stackLayout;horizontal=1;startSize=26;fillColor=none;horizontalStack=0;resizeParent=1;resizeParentMax=0;resizeLast=0;collapsible=1;marginBottom=0;" parent="1" vertex="1">
          <mxGeometry x="100" y="130" width="140" height="52" as="geometry" />
        </mxCell>
        <mxCell id="xen0vVQlNRW4A-57HRjQ-14" value="+ field: type" style="text;strokeColor=none;fillColor=none;align=left;verticalAlign=top;spacingLeft=4;spacingRight=4;overflow=hidden;rotatable=0;points=[[0,0.5],[1,0.5]];portConstraint=eastwest;" parent="xen0vVQlNRW4A-57HRjQ-13" vertex="1">
          <mxGeometry y="26" width="140" height="26" as="geometry" />
        </mxCell>
        <mxCell id="xen0vVQlNRW4A-57HRjQ-15" value="Calışanlar" style="swimlane;fontStyle=0;childLayout=stackLayout;horizontal=1;startSize=26;fillColor=none;horizontalStack=0;resizeParent=1;resizeParentMax=0;resizeLast=0;collapsible=1;marginBottom=0;" parent="1" vertex="1">
          <mxGeometry x="484" y="130" width="140" height="52" as="geometry" />
        </mxCell>
        <mxCell id="xen0vVQlNRW4A-57HRjQ-16" value="+ field: type" style="text;strokeColor=none;fillColor=none;align=left;verticalAlign=top;spacingLeft=4;spacingRight=4;overflow=hidden;rotatable=0;points=[[0,0.5],[1,0.5]];portConstraint=eastwest;" parent="xen0vVQlNRW4A-57HRjQ-15" vertex="1">
          <mxGeometry y="26" width="140" height="26" as="geometry" />
        </mxCell>
        <mxCell id="xen0vVQlNRW4A-57HRjQ-17" value="Öfis" style="swimlane;fontStyle=0;childLayout=stackLayout;horizontal=1;startSize=26;fillColor=none;horizontalStack=0;resizeParent=1;resizeParentMax=0;resizeLast=0;collapsible=1;marginBottom=0;" parent="1" vertex="1">
          <mxGeometry x="624" y="380" width="140" height="52" as="geometry" />
        </mxCell>
        <mxCell id="xen0vVQlNRW4A-57HRjQ-18" value="+ field: type" style="text;strokeColor=none;fillColor=none;align=left;verticalAlign=top;spacingLeft=4;spacingRight=4;overflow=hidden;rotatable=0;points=[[0,0.5],[1,0.5]];portConstraint=eastwest;" parent="xen0vVQlNRW4A-57HRjQ-17" vertex="1">
          <mxGeometry y="26" width="140" height="26" as="geometry" />
        </mxCell>
        <mxCell id="xen0vVQlNRW4A-57HRjQ-21" value="Memur" style="swimlane;fontStyle=0;childLayout=stackLayout;horizontal=1;startSize=26;fillColor=none;horizontalStack=0;resizeParent=1;resizeParentMax=0;resizeLast=0;collapsible=1;marginBottom=0;" parent="1" vertex="1">
          <mxGeometry x="520" y="260" width="140" height="52" as="geometry" />
        </mxCell>
        <mxCell id="xen0vVQlNRW4A-57HRjQ-22" value="+ field: type" style="text;strokeColor=none;fillColor=none;align=left;verticalAlign=top;spacingLeft=4;spacingRight=4;overflow=hidden;rotatable=0;points=[[0,0.5],[1,0.5]];portConstraint=eastwest;" parent="xen0vVQlNRW4A-57HRjQ-21" vertex="1">
          <mxGeometry y="26" width="140" height="26" as="geometry" />
        </mxCell>
        <mxCell id="xen0vVQlNRW4A-57HRjQ-25" value="Prof" style="swimlane;fontStyle=0;childLayout=stackLayout;horizontal=1;startSize=26;fillColor=none;horizontalStack=0;resizeParent=1;resizeParentMax=0;resizeLast=0;collapsible=1;marginBottom=0;" parent="1" vertex="1">
          <mxGeometry x="300" y="240" width="140" height="52" as="geometry" />
        </mxCell>
        <mxCell id="xen0vVQlNRW4A-57HRjQ-26" value="+ field: type" style="text;strokeColor=none;fillColor=none;align=left;verticalAlign=top;spacingLeft=4;spacingRight=4;overflow=hidden;rotatable=0;points=[[0,0.5],[1,0.5]];portConstraint=eastwest;" parent="xen0vVQlNRW4A-57HRjQ-25" vertex="1">
          <mxGeometry y="26" width="140" height="26" as="geometry" />
        </mxCell>
        <mxCell id="xen0vVQlNRW4A-57HRjQ-56" value="" style="endArrow=diamondThin;endFill=0;endSize=24;html=1;rounded=0;exitX=0.571;exitY=-0.058;exitDx=0;exitDy=0;exitPerimeter=0;" parent="1" source="xen0vVQlNRW4A-57HRjQ-11" edge="1">
          <mxGeometry width="160" relative="1" as="geometry">
            <mxPoint x="380" y="130" as="sourcePoint" />
            <mxPoint x="380" y="92" as="targetPoint" />
          </mxGeometry>
        </mxCell>
        <mxCell id="xen0vVQlNRW4A-57HRjQ-61" value="" style="endArrow=diamondThin;endFill=0;endSize=24;html=1;rounded=0;entryX=-0.029;entryY=0.154;entryDx=0;entryDy=0;entryPerimeter=0;" parent="1" target="xen0vVQlNRW4A-57HRjQ-6" edge="1">
          <mxGeometry width="160" relative="1" as="geometry">
            <mxPoint x="160" y="120" as="sourcePoint" />
            <mxPoint x="140.05999999999995" y="-14.984000000000037" as="targetPoint" />
            <Array as="points">
              <mxPoint x="160" y="70" />
            </Array>
          </mxGeometry>
        </mxCell>
        <mxCell id="xen0vVQlNRW4A-57HRjQ-62" value="" style="endArrow=diamondThin;endFill=0;endSize=24;html=1;rounded=0;exitX=0.564;exitY=-0.019;exitDx=0;exitDy=0;exitPerimeter=0;entryX=1.021;entryY=-0.115;entryDx=0;entryDy=0;entryPerimeter=0;" parent="1" source="xen0vVQlNRW4A-57HRjQ-15" target="xen0vVQlNRW4A-57HRjQ-6" edge="1">
          <mxGeometry width="160" relative="1" as="geometry">
            <mxPoint x="640" y="30" as="sourcePoint" />
            <mxPoint x="640.06" y="-14.984000000000037" as="targetPoint" />
            <Array as="points">
              <mxPoint x="563" y="63" />
            </Array>
          </mxGeometry>
        </mxCell>
        <mxCell id="xen0vVQlNRW4A-57HRjQ-63" value="" style="endArrow=diamondThin;endFill=0;endSize=24;html=1;rounded=0;" parent="1" edge="1">
          <mxGeometry width="160" relative="1" as="geometry">
            <mxPoint x="720" y="120" as="sourcePoint" />
            <mxPoint x="484" y="80" as="targetPoint" />
            <Array as="points">
              <mxPoint x="720" y="80" />
            </Array>
          </mxGeometry>
        </mxCell>
        <mxCell id="xen0vVQlNRW4A-57HRjQ-67" value="dispatch" style="html=1;verticalAlign=bottom;endArrow=block;rounded=0;exitX=0.486;exitY=1.038;exitDx=0;exitDy=0;exitPerimeter=0;entryX=0.407;entryY=-0.038;entryDx=0;entryDy=0;entryPerimeter=0;" parent="1" source="xen0vVQlNRW4A-57HRjQ-16" target="xen0vVQlNRW4A-57HRjQ-17" edge="1">
          <mxGeometry width="80" relative="1" as="geometry">
            <mxPoint x="380" y="460" as="sourcePoint" />
            <mxPoint x="680" y="370" as="targetPoint" />
            <Array as="points">
              <mxPoint x="690" y="220" />
            </Array>
          </mxGeometry>
        </mxCell>
        <mxCell id="xen0vVQlNRW4A-57HRjQ-80" value="Extends" style="endArrow=block;endSize=16;endFill=0;html=1;rounded=0;exitX=0.5;exitY=0;exitDx=0;exitDy=0;entryX=0.343;entryY=1.077;entryDx=0;entryDy=0;entryPerimeter=0;" parent="1" source="xen0vVQlNRW4A-57HRjQ-25" target="xen0vVQlNRW4A-57HRjQ-16" edge="1">
          <mxGeometry width="160" relative="1" as="geometry">
            <mxPoint x="340" y="260" as="sourcePoint" />
            <mxPoint x="500" y="260" as="targetPoint" />
            <Array as="points">
              <mxPoint x="370" y="220" />
              <mxPoint x="530" y="220" />
            </Array>
          </mxGeometry>
        </mxCell>
      </root>
    </mxGraphModel>
  </diagram>
</mxfile>
